<mxfile host="app.diagrams.net" agent="Mozilla/5.0 (Windows NT 10.0; Win64; x64) AppleWebKit/537.36 (KHTML, like Gecko) Chrome/131.0.0.0 Safari/537.36 Edg/131.0.0.0" version="26.0.4">
  <diagram name="Page-1" id="74e2e168-ea6b-b213-b513-2b3c1d86103e">
    <mxGraphModel dx="1042" dy="565" grid="1" gridSize="10" guides="1" tooltips="1" connect="1" arrows="1" fold="1" page="1" pageScale="1" pageWidth="1100" pageHeight="850" background="none" math="0" shadow="0">
      <root>
        <mxCell id="0" />
        <mxCell id="1" parent="0" />
        <mxCell id="77e6c97f196da883-1" value="Pool" style="swimlane;html=1;childLayout=stackLayout;startSize=20;rounded=0;shadow=0;labelBackgroundColor=none;strokeWidth=1;fontFamily=Verdana;fontSize=8;align=center;" parent="1" vertex="1">
          <mxGeometry x="370" width="610" height="840" as="geometry" />
        </mxCell>
        <mxCell id="77e6c97f196da883-2" value="Client Side (Flutter)" style="swimlane;html=1;startSize=20;" parent="77e6c97f196da883-1" vertex="1">
          <mxGeometry y="20" width="280" height="820" as="geometry" />
        </mxCell>
        <mxCell id="a5jDp_VEbeIc0V3kGwnW-9" style="edgeStyle=orthogonalEdgeStyle;rounded=0;orthogonalLoop=1;jettySize=auto;html=1;" edge="1" parent="77e6c97f196da883-2" source="77e6c97f196da883-8" target="a5jDp_VEbeIc0V3kGwnW-8">
          <mxGeometry relative="1" as="geometry" />
        </mxCell>
        <mxCell id="77e6c97f196da883-8" value="Add Bank Account Data" style="rounded=1;whiteSpace=wrap;html=1;shadow=0;labelBackgroundColor=none;strokeWidth=1;fontFamily=Verdana;fontSize=8;align=center;" parent="77e6c97f196da883-2" vertex="1">
          <mxGeometry x="20" y="40" width="170" height="60" as="geometry" />
        </mxCell>
        <mxCell id="a5jDp_VEbeIc0V3kGwnW-8" value="Create bank token" style="rounded=1;whiteSpace=wrap;html=1;shadow=0;labelBackgroundColor=none;strokeWidth=1;fontFamily=Verdana;fontSize=8;align=center;" vertex="1" parent="77e6c97f196da883-2">
          <mxGeometry x="20" y="150" width="170" height="60" as="geometry" />
        </mxCell>
        <mxCell id="77e6c97f196da883-3" value="Back End (.net)" style="swimlane;html=1;startSize=20;" parent="77e6c97f196da883-1" vertex="1">
          <mxGeometry x="280" y="20" width="330" height="820" as="geometry" />
        </mxCell>
        <mxCell id="a5jDp_VEbeIc0V3kGwnW-14" style="edgeStyle=orthogonalEdgeStyle;rounded=0;orthogonalLoop=1;jettySize=auto;html=1;" edge="1" parent="77e6c97f196da883-3" source="a5jDp_VEbeIc0V3kGwnW-11" target="a5jDp_VEbeIc0V3kGwnW-13">
          <mxGeometry relative="1" as="geometry" />
        </mxCell>
        <mxCell id="a5jDp_VEbeIc0V3kGwnW-11" value="Save bank data in database" style="rounded=1;whiteSpace=wrap;html=1;shadow=0;labelBackgroundColor=none;strokeWidth=1;fontFamily=Verdana;fontSize=8;align=center;" vertex="1" parent="77e6c97f196da883-3">
          <mxGeometry x="90" y="150" width="170" height="60" as="geometry" />
        </mxCell>
        <mxCell id="a5jDp_VEbeIc0V3kGwnW-16" style="edgeStyle=orthogonalEdgeStyle;rounded=0;orthogonalLoop=1;jettySize=auto;html=1;entryX=0.5;entryY=0;entryDx=0;entryDy=0;" edge="1" parent="77e6c97f196da883-3" source="a5jDp_VEbeIc0V3kGwnW-13" target="a5jDp_VEbeIc0V3kGwnW-15">
          <mxGeometry relative="1" as="geometry" />
        </mxCell>
        <mxCell id="a5jDp_VEbeIc0V3kGwnW-13" value="Create a stipe bank account id" style="rounded=1;whiteSpace=wrap;html=1;shadow=0;labelBackgroundColor=none;strokeWidth=1;fontFamily=Verdana;fontSize=8;align=center;" vertex="1" parent="77e6c97f196da883-3">
          <mxGeometry x="90" y="260" width="170" height="60" as="geometry" />
        </mxCell>
        <mxCell id="a5jDp_VEbeIc0V3kGwnW-18" style="edgeStyle=orthogonalEdgeStyle;rounded=0;orthogonalLoop=1;jettySize=auto;html=1;" edge="1" parent="77e6c97f196da883-3" source="a5jDp_VEbeIc0V3kGwnW-15" target="a5jDp_VEbeIc0V3kGwnW-17">
          <mxGeometry relative="1" as="geometry" />
        </mxCell>
        <mxCell id="a5jDp_VEbeIc0V3kGwnW-15" value="Create a stripe connect account for the freelancer" style="rounded=1;whiteSpace=wrap;html=1;shadow=0;labelBackgroundColor=none;strokeWidth=1;fontFamily=Verdana;fontSize=8;align=center;" vertex="1" parent="77e6c97f196da883-3">
          <mxGeometry x="90" y="360" width="170" height="60" as="geometry" />
        </mxCell>
        <mxCell id="a5jDp_VEbeIc0V3kGwnW-17" value="Link the stripe connect account with bank account id" style="rounded=1;whiteSpace=wrap;html=1;shadow=0;labelBackgroundColor=none;strokeWidth=1;fontFamily=Verdana;fontSize=8;align=center;" vertex="1" parent="77e6c97f196da883-3">
          <mxGeometry x="90" y="470" width="170" height="60" as="geometry" />
        </mxCell>
        <mxCell id="a5jDp_VEbeIc0V3kGwnW-12" style="edgeStyle=orthogonalEdgeStyle;rounded=0;orthogonalLoop=1;jettySize=auto;html=1;entryX=0;entryY=0.5;entryDx=0;entryDy=0;" edge="1" parent="77e6c97f196da883-1" source="a5jDp_VEbeIc0V3kGwnW-8" target="a5jDp_VEbeIc0V3kGwnW-11">
          <mxGeometry relative="1" as="geometry" />
        </mxCell>
        <mxCell id="a5jDp_VEbeIc0V3kGwnW-3" style="edgeStyle=orthogonalEdgeStyle;rounded=0;orthogonalLoop=1;jettySize=auto;html=1;exitX=0.5;exitY=0.5;exitDx=0;exitDy=0;exitPerimeter=0;entryX=0;entryY=0.5;entryDx=0;entryDy=0;" edge="1" parent="1" source="a5jDp_VEbeIc0V3kGwnW-1" target="77e6c97f196da883-8">
          <mxGeometry relative="1" as="geometry">
            <mxPoint x="230" y="120" as="targetPoint" />
          </mxGeometry>
        </mxCell>
        <mxCell id="a5jDp_VEbeIc0V3kGwnW-1" value="Freelancer" style="shape=umlActor;verticalLabelPosition=bottom;verticalAlign=top;html=1;outlineConnect=0;" vertex="1" parent="1">
          <mxGeometry x="90" y="60" width="30" height="60" as="geometry" />
        </mxCell>
      </root>
    </mxGraphModel>
  </diagram>
</mxfile>
